<?xml version="1.0" encoding="UTF-8" standalone="no"?>
<svg
   version="1.2"
   preserveAspectRatio="none"
   class="ng-element"
   data-id="c6d6b772ff42418cbbf77e030151b70f"
   style="overflow:visible;opacity:1;mix-blend-mode:normal"
   id="svg4"
   sodipodi:docname="ico-truck.svg"
   width="66"
   height="20"
   inkscape:version="1.1.2 (0a00cf5339, 2022-02-04)"
   xmlns:inkscape="http://www.inkscape.org/namespaces/inkscape"
   xmlns:sodipodi="http://sodipodi.sourceforge.net/DTD/sodipodi-0.dtd"
   xmlns="http://www.w3.org/2000/svg"
   xmlns:svg="http://www.w3.org/2000/svg">
  <defs
     id="defs8" />
  <sodipodi:namedview
     id="namedview6"
     pagecolor="#ffffff"
     bordercolor="#666666"
     borderopacity="1.0"
     inkscape:pageshadow="2"
     inkscape:pageopacity="0.0"
     inkscape:pagecheckerboard="0"
     showgrid="false"
     inkscape:zoom="2.0483333"
     inkscape:cx="149.87795"
     inkscape:cy="114.23922"
     inkscape:window-width="1920"
     inkscape:window-height="1007"
     inkscape:window-x="0"
     inkscape:window-y="0"
     inkscape:window-maximized="1"
     inkscape:current-layer="svg4" />
  <path
     d="m 58.244,12.48 h 1.84 v 0.263 h -1.84 z m -7.967,0.98 H 0 V 0 h 50.277 z m -40.015,1.43 a 2.756,2.756 0 1 1 0,5.51 2.757,2.757 0 0 1 -2.758,-2.755 2.757,2.757 0 0 1 2.758,-2.755 z m 0,2.073 a 0.683,0.683 0 1 1 0,1.365 0.683,0.683 0 0 1 0,-1.365 z m 0,-0.819 a 1.502,1.502 0 1 1 0,3.004 1.502,1.502 0 0 1 0,-3.004 z m 7.532,-1.254 a 2.756,2.756 0 1 1 0,5.51 2.756,2.756 0 1 1 0,-5.51 z m 0,2.073 a 0.68200073,0.68200073 0 1 1 -0.002,1.364 0.68200073,0.68200073 0 0 1 0.002,-1.364 z m 0,-0.819 a 1.502,1.502 0 1 1 0,3.004 1.502,1.502 0 0 1 0,-3.004 z M 57.5,14.89 a 2.756,2.756 0 1 1 0,5.51 2.757,2.757 0 0 1 -2.758,-2.755 2.757,2.757 0 0 1 2.758,-2.755 z m 0,2.073 a 0.683,0.683 0 1 1 0,1.365 0.683,0.683 0 0 1 0,-1.365 z m 0,-0.819 a 1.502,1.502 0 1 1 0,3.004 1.502,1.502 0 0 1 0,-3.004 z M 45.779,14.89 a 2.756,2.756 0 1 1 0,5.51 2.756,2.756 0 1 1 0,-5.51 z m 0,2.073 a 0.683,0.683 0 1 1 0,1.365 0.683,0.683 0 0 1 0,-1.365 z m 0,-0.819 a 1.501,1.501 0 1 1 -1.502,1.501 c 0,-0.829 0.673,-1.5 1.502,-1.5 z M 38.154,14.89 a 2.757,2.757 0 0 1 2.757,2.755 2.7575,2.7575 0 0 1 -5.515,0 2.756,2.756 0 0 1 2.758,-2.755 z m 0,2.073 a 0.6815,0.6815 0 1 1 0,1.363 0.6815,0.6815 0 0 1 0,-1.363 z m 0,-0.819 a 1.502,1.502 0 1 1 0,3.004 1.502,1.502 0 0 1 0,-3.004 z m -24.5,1.591 h 0.79 c 0,-1.543 0.624,-2.308 1.445,-3.022 h -3.55 c 0.292,0.436 0.65,0.671 0.918,1.186 0.241,0.464 0.397,1.121 0.397,1.836 z m 28.791,0 c 0,-1.558 0.619,-2.302 1.447,-3.022 H 40.08 c 0.329,0.449 1.098,0.813 1.303,2.123 0.165,1.047 -0.121,0.8 0.292,0.896 0.097,0.022 0.632,0.003 0.771,0.003 z M 2.611,16.683 h 1.051 v 1.051 h 3.419 c 0,-2.152 0.655,-2.036 1.314,-3.022 H 2.611 Z m 18.405,0.394 v 0.657 h 1.052 V 16.683 H 32.5 v -1.97 H 19.702 c 0.492,0.735 1.314,1.028 1.314,2.364 z m 12.752,-0.394 v 1.051 h 1.053 c 0,-2.016 1.176,-2.654 1.446,-3.022 h -2.499 z m 24.476,-8.8 c 4.43,0 3.42,-0.445 4.626,1.552 0.357,0.59 0.715,1.144 1.026,1.732 h -5.652 z m -6.18,-1.314 h -0.526 v 4.467 h 0.526 v 4.334 h -0.92 v -0.658 h -3.44 c 0.836,1.247 1.315,0.772 1.315,3.022 h 1.052 V 17.34 h 3.177 v 0.657 h 0.92 v -0.788 c 0,-1.702 1.44,-3.021 3.55,-3.021 1.543,0 3.023,1.592 3.023,3.152 v 0.657 h 0.79 V 17.34 h 3.68 V 16.683 H 66 v -1.84 h -0.788 v -3.676 c 0,-0.515 -0.71,-1.543 -0.998,-2.026 C 63.812,8.466 63.523,7.869 63.134,7.199 62.649,6.359 62.84,6.453 61.212,6.1 57.867,5.374 56.847,5.65 53.117,5.65 V 4.993 h -1.053 z"
     style="fill:#127ce6;stroke-width:0;stroke-linecap:butt;stroke-linejoin:miter"
     id="path2" />
</svg>
