<svg version="1.2" preserveAspectRatio="none" viewBox="0 0 24 24" class="ng-element" data-id="6280d35c2ac5451a962fb18d44230535" stroke-linecap="null" stroke-linejoin="null" style="opacity: 1; mix-blend-mode: normal; fill: rgb(18, 124, 230); width: 25px; height: 25px; transform: rotate(0deg) translate(360.178px, 31.6777px) rotate(135deg);"><g><path xmlns:default="http://www.w3.org/2000/svg" d="M6.62 10.79c1.44 2.83 3.76 5.14 6.59 6.59l2.2-2.2c.27-.27.67-.36 1.02-.24 1.12.37 2.33.57 3.57.57.55 0 1 .45 1 1V20c0 .55-.45 1-1 1-9.39 0-17-7.61-17-17 0-.55.45-1 1-1h3.5c.55 0 1 .45 1 1 0 1.25.2 2.45.57 3.57.11.35.03.74-.25 1.02l-2.2 2.2z" style="fill: rgb(18, 124, 230);"></path></g></svg>