<?xml version="1.0" encoding="UTF-8" standalone="no"?>
<!-- Generator: Adobe Illustrator 25.0.0, SVG Export Plug-In . SVG Version: 6.00 Build 0)  -->

<svg
   version="1.1"
   id="Layer_1"
   x="0px"
   y="0px"
   viewBox="0 0 24 24"
   xml:space="preserve"
   width="24"
   height="24"
   sodipodi:docname="snowflake.svg"
   inkscape:version="1.1.2 (0a00cf5339, 2022-02-04)"
   xmlns:inkscape="http://www.inkscape.org/namespaces/inkscape"
   xmlns:sodipodi="http://sodipodi.sourceforge.net/DTD/sodipodi-0.dtd"
   xmlns="http://www.w3.org/2000/svg"
   xmlns:svg="http://www.w3.org/2000/svg"><defs
   id="defs7" /><sodipodi:namedview
   id="namedview5"
   pagecolor="#ffffff"
   bordercolor="#666666"
   borderopacity="1.0"
   inkscape:pageshadow="2"
   inkscape:pageopacity="0.0"
   inkscape:pagecheckerboard="0"
   showgrid="false"
   width="24px"
   inkscape:zoom="10.0625"
   inkscape:cx="8.3478261"
   inkscape:cy="25.440994"
   inkscape:window-width="1920"
   inkscape:window-height="1007"
   inkscape:window-x="0"
   inkscape:window-y="0"
   inkscape:window-maximized="1"
   inkscape:current-layer="Layer_1" />
<path
   d="m 22.094829,13.460687 -2.415036,0.575131 c -0.303798,0.07729 -0.594419,0.199364 -0.862294,0.362182 l -1.964216,-1.205244 c 0.212118,-0.778839 0.212118,-1.600231 0,-2.37907 l 1.964216,-1.2052433 c 0.267875,0.1628181 0.558496,0.2848858 0.862294,0.3621827 0,0 2.643843,0.6153736 2.757761,0.6153736 0.813565,-0.0077 1.466793,-0.6731728 1.459027,-1.4862481 C 23.890181,8.4281941 23.429764,7.846086 22.777369,7.684746 L 20.358404,7.1066576 c -0.05492,-0.013352 -0.101899,-0.048929 -0.129638,-0.098135 -0.02972,-0.047357 -0.03893,-0.1047415 -0.02552,-0.1589835 l 0.575508,-2.4144144 c 0.23542,-0.7782849 -0.205042,-1.5999539 -0.98384,-1.8352182 -0.778798,-0.2352642 -1.601008,0.2049091 -1.836426,0.9831939 -0.01748,0.057708 -0.03135,0.1163845 -0.04161,0.1758013 l -0.575511,2.4144151 c -0.0675,0.3025815 -0.0897,0.6134795 -0.06579,0.9225759 L 15.311361,8.3060338 C 14.806449,7.8714975 14.217855,7.5447982 13.581872,7.3461728 V 5.0347896 c 0.27874,-0.1411494 0.534362,-0.3238351 0.758177,-0.5417731 L 16.097047,2.738145 C 16.672281,2.1630137 16.67205,1.2307815 16.09655,0.65597361 15.52104,0.08111941 14.588194,0.08135043 14.013007,0.65648022 v 0 L 12.25698,2.4122758 c -0.08128,0.081317 -0.21309,0.081409 -0.294459,1.848e-4 -4.7e-5,-4.62e-5 -1.4e-4,-1.387e-4 -1.86e-4,-1.848e-4 L 10.204356,0.65643558 c -0.5755116,-0.57513135 -1.5085423,-0.57513135 -2.0840527,0 -0.5755104,0.57513142 -0.5755104,1.50754832 0,2.08267972 l 1.7569983,1.7548712 c 0.2238604,0.217569 0.4795304,0.3999308 0.7581774,0.5408031 V 7.3461728 C 10.000883,7.5466001 9.4139996,7.8745931 8.9108906,8.3099613 L 6.9417279,7.0958927 c 0.024595,-0.3113602 0.0024,-0.6246607 -0.06579,-0.9294599 L 6.3004279,3.7589017 C 6.1244644,2.9650928 5.3378536,2.4641168 4.5435218,2.6399642 3.7491901,2.8158119 3.247884,3.6019048 3.4238474,4.3957138 c 0.00337,0.015154 0.00698,0.030263 0.010818,0.045279 l 0.57551,2.4144149 c 0.01341,0.054289 0.00421,0.111672 -0.025522,0.1589836 -0.027739,0.049252 -0.074712,0.084782 -0.1296378,0.098135 L 1.4399814,7.6846999 C 0.64856239,7.8735304 0.16015541,8.6677088 0.3491103,9.4585604 0.50722767,10.120506 1.0987808,10.587894 1.7797489,10.58891 c 0.1139185,0 2.7577613,-0.615374 2.7577613,-0.615374 C 4.841308,9.8962349 5.1319299,9.7741714 5.3998046,9.6113533 l 1.9642155,1.2052427 c -0.2121177,0.77884 -0.2121177,1.600232 0,2.379071 L 5.3998046,14.400911 C 5.1319311,14.238092 4.8413093,14.116025 4.5375115,14.038728 L 2.1224766,13.463597 c -0.7775954,-0.239238 -1.60202488,0.196823 -1.84142013,0.973906 -0.23939525,0.777084 0.19695322,1.60097 0.97454853,1.840207 0.060427,0.01858 0.1220094,0.03326 0.1842854,0.04394 l 2.4150347,0.575132 c 0.054924,0.01335 0.1018979,0.04893 0.129638,0.09813 0.029729,0.04736 0.038928,0.104742 0.025522,0.158984 l -0.575464,2.414462 c -0.1898333,0.790851 0.2977875,1.585769 1.0891607,1.775477 0.7913728,0.189709 1.5868141,-0.297592 1.7766475,-1.088443 l 0.5755099,-2.414415 c 0.068287,-0.305123 0.090478,-0.618747 0.06579,-0.93043 l 1.9691623,-1.210142 c 0.5031091,0.435369 1.0899925,0.763361 1.7245885,0.963789 v 2.307456 c -0.278554,0.141889 -0.534131,0.324851 -0.7581765,0.542743 l -1.7569989,1.752885 c -0.5755104,0.575132 -0.5755104,1.507548 0,2.08268 0.5755104,0.575131 1.5085417,0.575131 2.0840524,0 l 1.756027,-1.755842 c 0.08128,-0.08132 0.213089,-0.08141 0.294459,-1.85e-4 4.7e-5,4.7e-5 1.38e-4,1.38e-4 1.85e-4,1.85e-4 l 1.756027,1.755842 c 0.575511,0.575131 1.508542,0.575131 2.084052,0 0.57551,-0.575132 0.57551,-1.507548 0,-2.08268 L 14.338109,19.51241 c -0.223583,-0.21706 -0.478513,-0.399331 -0.756236,-0.540803 v -2.311383 c 0.634596,-0.200428 1.22148,-0.528421 1.72459,-0.963789 l 1.964215,1.210142 c -0.02459,0.31136 -0.0025,0.62466 0.0658,0.92946 l 0.57551,2.414415 c 0.189833,0.790851 0.985275,1.278152 1.776648,1.088443 0.791373,-0.189708 1.278994,-0.984626 1.089161,-1.775477 l -0.575515,-2.414416 c -0.01341,-0.05429 -0.0041,-0.111672 0.02552,-0.158984 0.02774,-0.04925 0.07471,-0.08478 0.129639,-0.09813 l 2.415035,-0.575132 c 0.791373,-0.189707 1.278994,-0.984625 1.08916,-1.775477 -0.189834,-0.790852 -0.985275,-1.278153 -1.776647,-1.088444 v 0 z m -9.986177,0.505456 c -1.084814,0 -1.964215,-0.878821 -1.964215,-1.962922 0,-1.0841 0.879401,-1.962922 1.964215,-1.962922 1.084815,0 1.964216,0.878822 1.964216,1.962922 0,1.084101 -0.879401,1.962922 -1.964216,1.962922 z"
   id="path2"
   style="stroke-width:0.046218" />
</svg>
